<svg version="1.1" xmlns="http://www.w3.org/2000/svg" xmlns:xlink="http://www.w3.org/1999/xlink" width="3300" height="2200" viewBox="0 0 3300 2200">
    <g id="Notes">
        <rect height="2200" id="artboard" style="fill:white;opacity:1" width="3300" x="0" y="0"></rect>
        <line style="fill:none;stroke:black;opacity:1;stroke-width:0.5;" x1="263" x2="3036" y1="292" y2="292"></line>
        <text style="stroke:none;fill:black;font-family:sans-serif;font-size:13;font-weight:bold;" transform="matrix(1 0 0 1 263 322)">Weight/Scale Variations</text>
        <text style="stroke:none;fill:black;font-family:sans-serif;font-size:13;text-anchor:middle;" transform="matrix(1 0 0 1 559.711 322)">Ultralight</text>
        <text style="stroke:none;fill:black;font-family:sans-serif;font-size:13;text-anchor:middle;" transform="matrix(1 0 0 1 856.422 322)">Thin</text>
        <text style="stroke:none;fill:black;font-family:sans-serif;font-size:13;text-anchor:middle;" transform="matrix(1 0 0 1 1153.13 322)">Light</text>
        <text style="stroke:none;fill:black;font-family:sans-serif;font-size:13;text-anchor:middle;" transform="matrix(1 0 0 1 1449.84 322)">Regular</text>
        <text style="stroke:none;fill:black;font-family:sans-serif;font-size:13;text-anchor:middle;" transform="matrix(1 0 0 1 1746.56 322)">Medium</text>
        <text style="stroke:none;fill:black;font-family:sans-serif;font-size:13;text-anchor:middle;" transform="matrix(1 0 0 1 2043.27 322)">Semibold</text>
        <text style="stroke:none;fill:black;font-family:sans-serif;font-size:13;text-anchor:middle;" transform="matrix(1 0 0 1 2339.98 322)">Bold</text>
        <text style="stroke:none;fill:black;font-family:sans-serif;font-size:13;text-anchor:middle;" transform="matrix(1 0 0 1 2636.69 322)">Heavy</text>
        <text style="stroke:none;fill:black;font-family:sans-serif;font-size:13;text-anchor:middle;" transform="matrix(1 0 0 1 2933.4 322)">Black</text>
        <line style="fill:none;stroke:black;opacity:1;stroke-width:0.5;" x1="263" x2="3036" y1="1903" y2="1903"></line>
        <g transform="matrix(1 0 0 1 263 1933)">
            <path d="M9.24805 0.830078Q10.8691 0.830078 12.2949 0.214844Q13.7207-0.400391 14.8096-1.49414Q15.8984-2.58789 16.5186-4.01367Q17.1387-5.43945 17.1387-7.05078Q17.1387-8.66211 16.5186-10.0879Q15.8984-11.5137 14.8047-12.6074Q13.7109-13.7012 12.2852-14.3164Q10.8594-14.9316 9.23828-14.9316Q7.62695-14.9316 6.20117-14.3164Q4.77539-13.7012 3.69141-12.6074Q2.60742-11.5137 1.9873-10.0879Q1.36719-8.66211 1.36719-7.05078Q1.36719-5.43945 1.9873-4.01367Q2.60742-2.58789 3.69629-1.49414Q4.78516-0.400391 6.21094 0.214844Q7.63672 0.830078 9.24805 0.830078ZM9.24805-0.654297Q7.91992-0.654297 6.7627-1.14746Q5.60547-1.64062 4.73145-2.51953Q3.85742-3.39844 3.36426-4.56055Q2.87109-5.72266 2.87109-7.05078Q2.87109-8.37891 3.35938-9.54102Q3.84766-10.7031 4.72168-11.582Q5.5957-12.4609 6.75293-12.9541Q7.91016-13.4473 9.23828-13.4473Q10.5762-13.4473 11.7334-12.9541Q12.8906-12.4609 13.7695-11.582Q14.6484-10.7031 15.1465-9.54102Q15.6445-8.37891 15.6445-7.05078Q15.6445-5.72266 15.1514-4.56055Q14.6582-3.39844 13.7842-2.51953Q12.9102-1.64062 11.748-1.14746Q10.5859-0.654297 9.24805-0.654297ZM5.83984-7.04102Q5.83984-6.71875 6.04492-6.51855Q6.25-6.31836 6.5918-6.31836L8.50586-6.31836L8.50586-4.39453Q8.50586-4.0625 8.70605-3.85742Q8.90625-3.65234 9.22852-3.65234Q9.56055-3.65234 9.76562-3.85742Q9.9707-4.0625 9.9707-4.39453L9.9707-6.31836L11.8945-6.31836Q12.2266-6.31836 12.4316-6.51855Q12.6367-6.71875 12.6367-7.04102Q12.6367-7.37305 12.4316-7.57812Q12.2266-7.7832 11.8945-7.7832L9.9707-7.7832L9.9707-9.69727Q9.9707-10.0391 9.76562-10.2441Q9.56055-10.4492 9.22852-10.4492Q8.90625-10.4492 8.70605-10.2441Q8.50586-10.0391 8.50586-9.69727L8.50586-7.7832L6.5918-7.7832Q6.25-7.7832 6.04492-7.57812Q5.83984-7.37305 5.83984-7.04102Z"></path>
        </g>
        <g transform="matrix(1 0 0 1 281.867 1933)">
            <path d="M11.709 2.91016Q13.75 2.91016 15.5518 2.12891Q17.3535 1.34766 18.7305-0.0292969Q20.1074-1.40625 20.8887-3.20801Q21.6699-5.00977 21.6699-7.05078Q21.6699-9.0918 20.8887-10.8936Q20.1074-12.6953 18.7305-14.0723Q17.3535-15.4492 15.5469-16.2305Q13.7402-17.0117 11.6992-17.0117Q9.6582-17.0117 7.85645-16.2305Q6.05469-15.4492 4.68262-14.0723Q3.31055-12.6953 2.5293-10.8936Q1.74805-9.0918 1.74805-7.05078Q1.74805-5.00977 2.5293-3.20801Q3.31055-1.40625 4.6875-0.0292969Q6.06445 1.34766 7.86621 2.12891Q9.66797 2.91016 11.709 2.91016ZM11.709 1.25Q9.98047 1.25 8.47656 0.605469Q6.97266-0.0390625 5.83496-1.17676Q4.69727-2.31445 4.05762-3.81836Q3.41797-5.32227 3.41797-7.05078Q3.41797-8.7793 4.05762-10.2832Q4.69727-11.7871 5.83008-12.9297Q6.96289-14.0723 8.4668-14.7119Q9.9707-15.3516 11.6992-15.3516Q13.4277-15.3516 14.9316-14.7119Q16.4355-14.0723 17.5781-12.9297Q18.7207-11.7871 19.3652-10.2832Q20.0098-8.7793 20.0098-7.05078Q20.0098-5.32227 19.3701-3.81836Q18.7305-2.31445 17.5928-1.17676Q16.4551-0.0390625 14.9463 0.605469Q13.4375 1.25 11.709 1.25ZM7.39258-7.04102Q7.39258-6.68945 7.62695-6.46484Q7.86133-6.24023 8.23242-6.24023L10.8789-6.24023L10.8789-3.57422Q10.8789-3.21289 11.1035-2.9834Q11.3281-2.75391 11.6797-2.75391Q12.0508-2.75391 12.2852-2.9834Q12.5195-3.21289 12.5195-3.57422L12.5195-6.24023L15.1758-6.24023Q15.5371-6.24023 15.7715-6.46484Q16.0059-6.68945 16.0059-7.04102Q16.0059-7.41211 15.7715-7.6416Q15.5371-7.87109 15.1758-7.87109L12.5195-7.87109L12.5195-10.5176Q12.5195-10.8984 12.2852-11.1279Q12.0508-11.3574 11.6797-11.3574Q11.3281-11.3574 11.1035-11.1279Q10.8789-10.8984 10.8789-10.5176L10.8789-7.87109L8.23242-7.87109Q7.85156-7.87109 7.62207-7.6416Q7.39258-7.41211 7.39258-7.04102Z"></path>
        </g>
        <g transform="matrix(1 0 0 1 305.646 1933)">
            <path d="M14.9707 5.66406Q17.0605 5.66406 18.96 5.01465Q20.8594 4.36523 22.4512 3.19336Q24.043 2.02148 25.2197 0.429688Q26.3965-1.16211 27.0459-3.06641Q27.6953-4.9707 27.6953-7.05078Q27.6953-9.14062 27.0459-11.04Q26.3965-12.9395 25.2197-14.5312Q24.043-16.123 22.4512-17.2998Q20.8594-18.4766 18.9551-19.126Q17.0508-19.7754 14.9609-19.7754Q12.8711-19.7754 10.9717-19.126Q9.07227-18.4766 7.48535-17.2998Q5.89844-16.123 4.72168-14.5312Q3.54492-12.9395 2.90039-11.04Q2.25586-9.14062 2.25586-7.05078Q2.25586-4.9707 2.90527-3.06641Q3.55469-1.16211 4.72656 0.429688Q5.89844 2.02148 7.49023 3.19336Q9.08203 4.36523 10.9814 5.01465Q12.8809 5.66406 14.9707 5.66406ZM14.9707 3.84766Q13.1641 3.84766 11.5283 3.2959Q9.89258 2.74414 8.53516 1.74805Q7.17773 0.751953 6.17676-0.610352Q5.17578-1.97266 4.62891-3.6084Q4.08203-5.24414 4.08203-7.05078Q4.08203-8.86719 4.62891-10.5029Q5.17578-12.1387 6.17188-13.501Q7.16797-14.8633 8.52539-15.8594Q9.88281-16.8555 11.5186-17.4023Q13.1543-17.9492 14.9609-17.9492Q16.7773-17.9492 18.4131-17.4023Q20.0488-16.8555 21.4111-15.8594Q22.7734-14.8633 23.7695-13.501Q24.7656-12.1387 25.3174-10.5029Q25.8691-8.86719 25.8691-7.05078Q25.8789-5.24414 25.332-3.6084Q24.7852-1.97266 23.7842-0.610352Q22.7832 0.751953 21.4209 1.74805Q20.0586 2.74414 18.4229 3.2959Q16.7871 3.84766 14.9707 3.84766ZM9.45312-7.04102Q9.45312-6.66016 9.71191-6.41113Q9.9707-6.16211 10.3711-6.16211L14.0625-6.16211L14.0625-2.46094Q14.0625-2.06055 14.3115-1.80664Q14.5605-1.55273 14.9414-1.55273Q15.3516-1.55273 15.6055-1.80664Q15.8594-2.06055 15.8594-2.46094L15.8594-6.16211L19.5605-6.16211Q19.9609-6.16211 20.2148-6.41113Q20.4688-6.66016 20.4688-7.04102Q20.4688-7.45117 20.2148-7.70508Q19.9609-7.95898 19.5605-7.95898L15.8594-7.95898L15.8594-11.6504Q15.8594-12.0605 15.6055-12.3145Q15.3516-12.5684 14.9414-12.5684Q14.5605-12.5684 14.3115-12.3096Q14.0625-12.0508 14.0625-11.6504L14.0625-7.95898L10.3711-7.95898Q9.96094-7.95898 9.70703-7.70508Q9.45312-7.45117 9.45312-7.04102Z"></path>
        </g>
        <text style="stroke:none;fill:black;font-family:sans-serif;font-size:13;font-weight:bold;" transform="matrix(1 0 0 1 263 1953)">Design Variations</text>
        <text style="stroke:none;fill:black;font-family:sans-serif;font-size:13;" transform="matrix(1 0 0 1 263 1971)">Symbols are supported in up to nine weights and three scales.</text>
        <text style="stroke:none;fill:black;font-family:sans-serif;font-size:13;" transform="matrix(1 0 0 1 263 1989)">For optimal layout with text and other symbols, vertically align</text>
        <text style="stroke:none;fill:black;font-family:sans-serif;font-size:13;" transform="matrix(1 0 0 1 263 2007)">symbols with the adjacent text.</text>
        <line style="fill:none;stroke:#00AEEF;stroke-width:0.5;opacity:1.0;" x1="776" x2="776" y1="1919" y2="1933"></line>
        <g transform="matrix(1 0 0 1 776 1933)">
            <path d="M3.31055 0.15625Q3.70117 0.15625 3.91602-0.00976562Q4.13086-0.175781 4.26758-0.585938L5.52734-4.0332L11.2891-4.0332L12.5488-0.585938Q12.6855-0.175781 12.9004-0.00976562Q13.1152 0.15625 13.4961 0.15625Q13.8867 0.15625 14.1162-0.0585938Q14.3457-0.273438 14.3457-0.644531Q14.3457-0.869141 14.2383-1.17188L9.6582-13.3691Q9.48242-13.8184 9.17969-14.043Q8.87695-14.2676 8.4082-14.2676Q7.5-14.2676 7.17773-13.3789L2.59766-1.16211Q2.49023-0.859375 2.49023-0.634766Q2.49023-0.263672 2.70996-0.0537109Q2.92969 0.15625 3.31055 0.15625ZM6.00586-5.51758L8.37891-12.0898L8.42773-12.0898L10.8008-5.51758Z"></path>
        </g>
        <line style="fill:none;stroke:#00AEEF;stroke-width:0.5;opacity:1.0;" x1="793.197" x2="793.197" y1="1919" y2="1933"></line>
        <text style="stroke:none;fill:black;font-family:sans-serif;font-size:13;font-weight:bold;" transform="matrix(1 0 0 1 776 1953)">Margins</text>
        <text style="stroke:none;fill:black;font-family:sans-serif;font-size:13;" transform="matrix(1 0 0 1 776 1971)">Leading and trailing margins on the left and right side of each symbol</text>
        <text style="stroke:none;fill:black;font-family:sans-serif;font-size:13;" transform="matrix(1 0 0 1 776 1989)">can be adjusted by modifying the x-location of the margin guidelines.</text>
        <text style="stroke:none;fill:black;font-family:sans-serif;font-size:13;" transform="matrix(1 0 0 1 776 2007)">Modifications are automatically applied proportionally to all</text>
        <text style="stroke:none;fill:black;font-family:sans-serif;font-size:13;" transform="matrix(1 0 0 1 776 2025)">scales and weights.</text>
        <g transform="matrix(1 0 0 1 1289 1933)">
            <path d="M2.8418 1.86523L4.54102 3.57422Q5.18555 4.22852 5.90332 4.17969Q6.62109 4.13086 7.31445 3.35938L18.0078-8.42773L17.041-9.4043L6.42578 2.27539Q6.16211 2.57812 5.89355 2.61719Q5.625 2.65625 5.27344 2.30469L4.10156 1.14258Q3.75 0.791016 3.79395 0.522461Q3.83789 0.253906 4.14062-0.0195312L15.6152-10.8203L14.6387-11.7871L3.04688-0.898438Q2.30469-0.214844 2.25098 0.498047Q2.19727 1.21094 2.8418 1.86523ZM9.25781-16.3281Q8.94531-16.0254 8.90625-15.6348Q8.86719-15.2441 9.04297-14.9512Q9.21875-14.6777 9.55566-14.541Q9.89258-14.4043 10.3809-14.5215Q11.4746-14.7754 12.5977-14.7314Q13.7207-14.6875 14.7949-13.9844L14.209-12.5293Q13.9551-11.9043 14.0674-11.4404Q14.1797-10.9766 14.5801-10.5664L16.875-8.25195Q17.2363-7.88086 17.5781-7.82227Q17.9199-7.76367 18.3398-7.8418L19.4043-8.03711L20.0684-7.36328L20.0293-6.80664Q20-6.43555 20.1221-6.12305Q20.2441-5.81055 20.6055-5.44922L21.3672-4.70703Q21.7285-4.3457 22.1533-4.33105Q22.5781-4.31641 22.9297-4.66797L25.8398-7.58789Q26.1914-7.93945 26.1816-8.35449Q26.1719-8.76953 25.8105-9.13086L25.0391-9.89258Q24.6875-10.2539 24.3799-10.3857Q24.0723-10.5176 23.7109-10.4883L23.1348-10.4395L22.4902-11.0742L22.7344-12.1973Q22.832-12.6172 22.6953-12.9834Q22.5586-13.3496 22.1191-13.7891L19.9219-15.9766Q18.6719-17.2168 17.2607-17.8369Q15.8496-18.457 14.4189-18.4814Q12.9883-18.5059 11.665-17.959Q10.3418-17.4121 9.25781-16.3281ZM10.752-15.957Q11.6602-16.6211 12.7002-16.9043Q13.7402-17.1875 14.8047-17.085Q15.8691-16.9824 16.8701-16.5137Q17.8711-16.0449 18.7012-15.2051L21.1328-12.793Q21.3086-12.6172 21.3525-12.4512Q21.3965-12.2852 21.3379-12.0312L21.0156-10.5469L22.5195-9.0625L23.5059-9.12109Q23.6914-9.13086 23.7891-9.09668Q23.8867-9.0625 24.0332-8.91602L24.6094-8.33984L22.168-5.89844L21.5918-6.47461Q21.4453-6.62109 21.4062-6.71875Q21.3672-6.81641 21.377-7.01172L21.4453-7.98828L19.9512-9.47266L18.4277-9.21875Q18.1836-9.16992 18.042-9.2041Q17.9004-9.23828 17.7148-9.41406L15.7129-11.416Q15.5176-11.5918 15.4932-11.7529Q15.4688-11.9141 15.5859-12.1875L16.4648-14.2773Q15.293-15.3711 13.8281-15.791Q12.3633-16.2109 10.8398-15.7617Q10.7227-15.7324 10.6885-15.8057Q10.6543-15.8789 10.752-15.957Z"></path>
        </g>
        <text style="stroke:none;fill:black;font-family:sans-serif;font-size:13;font-weight:bold;" transform="matrix(1 0 0 1 1289 1953)">Exporting</text>
        <text style="stroke:none;fill:black;font-family:sans-serif;font-size:13;" transform="matrix(1 0 0 1 1289 1971)">Symbols should be outlined when exporting to ensure the</text>
        <text style="stroke:none;fill:black;font-family:sans-serif;font-size:13;" transform="matrix(1 0 0 1 1289 1989)">design is preserved when submitting to Xcode.</text>
        <text id="template-version" style="stroke:none;fill:black;font-family:sans-serif;font-size:13;text-anchor:end;" transform="matrix(1 0 0 1 3036 1933)">Template v.3.0</text>
        <text style="stroke:none;fill:black;font-family:sans-serif;font-size:13;text-anchor:end;" transform="matrix(1 0 0 1 3036 1951)">Requires Xcode 13 or greater</text>
        <text id="descriptive-name" style="stroke:none;fill:black;font-family:sans-serif;font-size:13;text-anchor:end;" transform="matrix(1 0 0 1 3036 1969)">Generated from custom.pencil.circle</text>
        <text style="stroke:none;fill:black;font-family:sans-serif;font-size:13;text-anchor:end;" transform="matrix(1 0 0 1 3036 1987)">Typeset at 100 points</text>
        <text style="stroke:none;fill:black;font-family:sans-serif;font-size:13;" transform="matrix(1 0 0 1 263 726)">Small</text>
        <text style="stroke:none;fill:black;font-family:sans-serif;font-size:13;" transform="matrix(1 0 0 1 263 1156)">Medium</text>
        <text style="stroke:none;fill:black;font-family:sans-serif;font-size:13;" transform="matrix(1 0 0 1 263 1586)">Large</text>
    </g>
    <g id="Guides">
        <g id="H-reference" style="fill:#27AAE1;stroke:none;" transform="matrix(1 0 0 1 339 696)">
            <path d="M0.976562 0L3.66211 0L29.3457-67.1387L30.0293-67.1387L30.0293-70.459L28.125-70.459ZM11.6699-24.4629L46.9727-24.4629L46.2402-26.709L12.4512-26.709ZM55.127 0L57.7637 0L30.6152-70.459L29.4434-70.459L29.4434-67.1387Z"></path>
        </g>
        <line id="Baseline-S" style="fill:none;stroke:#27AAE1;opacity:1;stroke-width:0.5;" x1="263" x2="3036" y1="696" y2="696"></line>
        <line id="Capline-S" style="fill:none;stroke:#27AAE1;opacity:1;stroke-width:0.5;" x1="263" x2="3036" y1="625.541" y2="625.541"></line>
        <g id="H-reference" style="fill:#27AAE1;stroke:none;" transform="matrix(1 0 0 1 339 1126)">
            <path d="M0.976562 0L3.66211 0L29.3457-67.1387L30.0293-67.1387L30.0293-70.459L28.125-70.459ZM11.6699-24.4629L46.9727-24.4629L46.2402-26.709L12.4512-26.709ZM55.127 0L57.7637 0L30.6152-70.459L29.4434-70.459L29.4434-67.1387Z"></path>
        </g>
        <line id="Baseline-M" style="fill:none;stroke:#27AAE1;opacity:1;stroke-width:0.5;" x1="263" x2="3036" y1="1126" y2="1126"></line>
        <line id="Capline-M" style="fill:none;stroke:#27AAE1;opacity:1;stroke-width:0.5;" x1="263" x2="3036" y1="1055.54" y2="1055.54"></line>
        <g id="H-reference" style="fill:#27AAE1;stroke:none;" transform="matrix(1 0 0 1 339 1556)">
            <path d="M0.976562 0L3.66211 0L29.3457-67.1387L30.0293-67.1387L30.0293-70.459L28.125-70.459ZM11.6699-24.4629L46.9727-24.4629L46.2402-26.709L12.4512-26.709ZM55.127 0L57.7637 0L30.6152-70.459L29.4434-70.459L29.4434-67.1387Z"></path>
        </g>
        <line id="Baseline-L" style="fill:none;stroke:#27AAE1;opacity:1;stroke-width:0.5;" x1="263" x2="3036" y1="1556" y2="1556"></line>
        <line id="Capline-L" style="fill:none;stroke:#27AAE1;opacity:1;stroke-width:0.5;" x1="263" x2="3036" y1="1485.54" y2="1485.54"></line>
        <line id="left-margin-Ultralight-S" style="fill:none;stroke:#00AEEF;stroke-width:0.5;opacity:1.0;" x1="518.5509985351563" x2="518.5509985351563" y1="600.784" y2="720.121"></line>
        <line id="right-margin-Ultralight-S" style="fill:none;stroke:#00AEEF;stroke-width:0.5;opacity:1.0;" x1="600.8709985351562" x2="600.8709985351562" y1="600.784" y2="720.121"></line>
        <line id="left-margin-Regular-S" style="fill:none;stroke:#00AEEF;stroke-width:0.5;opacity:1.0;" x1="1407.124970703125" x2="1407.124970703125" y1="600.784" y2="720.121"></line>
        <line id="right-margin-Regular-S" style="fill:none;stroke:#00AEEF;stroke-width:0.5;opacity:1.0;" x1="1492.564970703125" x2="1492.564970703125" y1="600.784" y2="720.121"></line>
        <line id="left-margin-Black-S" style="fill:none;stroke:#00AEEF;stroke-width:0.5;opacity:1.0;" x1="2887.9000244140625" x2="2887.9000244140625" y1="600.784" y2="720.121"></line>
        <line id="right-margin-Black-S" style="fill:none;stroke:#00AEEF;stroke-width:0.5;opacity:1.0;" x1="2978.9000244140625" x2="2978.9000244140625" y1="600.784" y2="720.121"></line>
    </g>
<g id="Symbols"><g id="Ultralight-S" transform="matrix(1,0,0,1,504.96099853515625,606.0205078125)"><path d="M59.129999999999995 48.18h26.28v39.42c0 3.62883-2.94117 6.57-6.57 6.57H30.66c-3.62883 0-6.57-2.94117-6.57-6.57V21.9c0-3.62883 2.94117-6.57 6.57-6.57h21.9v26.28C52.56 45.23883 55.50117 48.18 59.129999999999995 48.18zM40.03101 79.14003c-3.4273499999999997 0-5.6064-2.71998-5.6064-6.97953 0-4.22232 2.20314-6.9642 5.5954500000000005-6.9642 2.14182 0 4.00551 1.10595 4.82238 3.1514100000000003 0.2409 0.6132000000000001 0.6132000000000001 0.90228 1.14318 0.90228 0.58911 0 0.97236-0.38543999999999995 0.97236-0.9855 0-0.25404-0.059129999999999995-0.55407-0.17958-0.8541-1.0227300000000001-2.58639-3.59817-4.21137-6.76053-4.21137-4.7523 0-7.8183 3.51276-7.8183 8.961479999999998 0 5.49909 3.03096 8.97462 7.8183 8.97462 3.1755 0 5.435580000000001-1.29867 6.58095-3.59817 0.19271999999999997-0.38543999999999995 0.28908-0.70956 0.28908-1.08186 0-0.56502-0.41172-0.97455-0.98769-0.97455-0.4818 0-0.7796399999999999 0.22776-1.00959 0.75774C44.07375 78.18957 42.29328 79.14003 40.03101 79.14003zM55.48365 81.13512c3.8850599999999997 0 6.412319999999999-2.00823 6.412319999999999-5.22096 0-2.4528000000000003-1.43007-3.8960099999999995-5.0523299999999995-4.69098l-1.9250099999999999-0.42048c-2.36958-0.51684-3.29814-1.45635-3.29814-2.8272899999999996 0-1.76952 1.67316-2.8272899999999996 3.8390699999999995-2.8272899999999996 1.8746399999999999 0 3.30909 0.7708799999999999 3.90915 2.52507 0.19271999999999997 0.55407 0.52779 0.84315 1.08186 0.84315 0.57816 0 0.9855-0.38543999999999995 0.9855-0.97455 0-0.22776-0.024089999999999997-0.40953-0.059129999999999995-0.54093-0.62415-2.34549-2.95869-3.80184-5.858249999999999-3.80184-3.59817 0-6.123239999999999 2.00823-6.123239999999999 4.87275 0 2.46594 1.5045300000000001 4.04274 4.98006 4.79829l1.9250099999999999 0.42048c2.4068099999999997 0.52998 3.36822 1.49139 3.36822 2.94774 0 1.7082-1.7082 2.94774-4.0668299999999995 2.94774-2.18781 0-3.8960099999999995-0.84096-4.42599-2.63457-0.16644-0.57816-0.5037-0.8541-1.0468199999999999-0.8541-0.6132000000000001 0-0.99864 0.43362-0.99864 1.11909 0 0.25185 0.048179999999999994 0.51684 0.12045 0.75774C49.901340000000005 79.66781999999999 52.22493 81.13512 55.48365 81.13512zM77.68368 64.85904c0.08322-0.22776 0.13359-0.43362 0.13359-0.6022500000000001 0-0.54093-0.45770999999999995-0.9373199999999999-1.095-0.9373199999999999-0.52998 0-0.81906 0.21681-1.0227300000000001 0.7708799999999999l-5.13774 14.12331h-0.07227l-5.13774-14.12331c-0.19271999999999997-0.52998-0.51684-0.7708799999999999-1.0358699999999998-0.7708799999999999-0.65043 0-1.08186 0.3723-1.08186 0.9373199999999999 0 0.16863 0.03723 0.36135 0.13359 0.6022500000000001l5.82102 15.15699c0.27813 0.7227 0.65043 0.99864 1.3358999999999999 0.99864 0.68328 0 1.0468199999999999-0.26499 1.32276-0.9855L77.68368 64.85904z"></path><path d="M59.129999999999995 45.99c-2.41995 0-4.38-1.96005-4.38-4.38V15.97167L84.76833 45.99H59.129999999999995z"></path></g><g id="Regular-S" transform="matrix(1,0,0,1,1392.564970703125,603.4905078125)"><path d="M64.44 53.7h25.060000000000002v32.22c0 5.93206-4.80794 10.74-10.74 10.74H35.8c-5.93206 0-10.74-4.80794-10.74-10.74V28.64c0-5.93206 4.80794-10.74 10.74-10.74h17.9v25.060000000000002C53.7 48.89206 58.50794 53.7 64.44 53.7zM43.45762 77.84889c-2.26614 0-3.76079-1.98153-3.76079-4.97083 0-2.9893 1.49465-4.986940000000001 3.76079-4.986940000000001 1.57341 0 2.7530200000000002 0.7553799999999999 3.3347700000000002 2.12473 0.31504 0.63008 0.67662 0.86457 1.25837 0.86457 0.81803 0 1.32102-0.47256000000000004 1.32102-1.24226 0-0.28282-0.03222-0.5191-0.15752-0.81803-0.78581-2.0764-3.01973-3.41353-5.80497-3.41353-4.10626 0-6.76441 2.92665-6.76441 7.47325 0 4.53049 2.6438300000000003 7.457140000000001 6.76441 7.457140000000001 2.80135 0 5.03348-1.32102 5.80497-3.41353 0.12530000000000002-0.28282 0.15752-0.53521 0.15752-0.8019200000000001 0-0.77149-0.50299-1.25837-1.32102-1.25837-0.58175 0-0.9594400000000001 0.26671-1.25837 0.86457C46.21064 77.09351000000001 45.03103 77.84889 43.45762 77.84889zM56.569370000000006 80.37637c3.6336999999999997 0 5.99471-1.76136 5.99471-4.516170000000001 0-2.12294-1.47854-3.3186600000000004-4.24767-3.9809600000000005l-1.9976400000000003-0.50299c-1.5107599999999999-0.36158-2.1086199999999997-0.86457-2.1086199999999997-1.73093 0-1.1635 0.9594400000000001-1.88845 2.45409-1.88845 1.39978 0 2.29657 0.53521 2.8640000000000003 1.6825999999999999 0.34547 0.5191 0.6927300000000001 0.78581 1.33713 0.78581 0.72316 0 1.24226-0.40991000000000005 1.24226-1.17961 0-0.25239-0.06265000000000001-0.53521-0.20406000000000002-0.85025-0.63008-1.57341-2.54896-2.73691-5.16057-2.73691-3.32045 0-5.60091 1.8096899999999998-5.60091 4.38908 0 2.0298599999999998 1.35324 3.2255800000000003 3.83955 3.8377600000000003l2.1086199999999997 0.56564c1.8258 0.45645 2.43798 0.88068 2.43798 1.8562299999999998 0 1.22794-1.1957200000000001 1.9027699999999999-2.76913 1.9027699999999999-1.49465 0-2.51674-0.55132-3.14682-1.6825999999999999-0.34547-0.53521-0.72316-0.7876-1.30491-0.7876-0.77149 0-1.27448 0.48867000000000005-1.27448 1.24226 0 0.28282 0.06265000000000001 0.56564 0.20406000000000002 0.85025C51.83303 79.10189000000001 53.7537 80.37637 56.569370000000006 80.37637zM77.77371 67.92334c0.09487-0.31504 0.14141-0.53521 0.14141-0.8019200000000001 0-0.86457-0.6444-1.4481100000000002-1.5573000000000001-1.4481100000000002-0.85025 0-1.30491 0.3938-1.57341 1.35324l-3.28823 10.06875h-0.12530000000000002l-3.28823-10.06875c-0.26671-0.9594400000000001-0.72316-1.35324-1.57341-1.35324-0.9129 0-1.5573000000000001 0.5978600000000001-1.5573000000000001 1.4481100000000002 0 0.28282 0.04654 0.48867000000000005 0.14141 0.8019200000000001l4.0113900000000005 10.71315c0.44034 1.27448 1.08653 1.77747 2.32879 1.77747 1.2118300000000002 0 1.9027699999999999-0.56564 2.3449-1.8258L77.77371 67.92334z"></path><path d="M64.44 46.54c-1.9761600000000001 0-3.58-1.60205-3.58-3.58V18.207880000000003L89.19391 46.54H64.44z"></path></g><g id="Black-S" transform="matrix(1,0,0,1,2870.4000244140625,597.7705078125)"><path d="M73.5 54.25h24.5v36.75c0 8.69925-7.05075 15.75-15.75 15.75H43.75c-8.69925 0-15.75-7.05075-15.75-15.75V35c0-8.69925 7.05075-15.75 15.75-15.75h19.25v24.5C63 49.5495 67.7005 54.25 73.5 54.25zM51.2365 84.85925c-2.2155 0-3.67675-1.93725-3.67675-4.85975 0-2.9225 1.46125-4.8755 3.67675-4.8755 1.5382500000000001 0 2.6915 0.7384999999999999 3.26025 2.0772500000000003 0.308 0.616 0.6615 0.84525 1.2302499999999998 0.84525 0.7997500000000001 0 1.2915-0.462 1.2915-1.2145 0-0.2765-0.0315-0.5075-0.154-0.7997500000000001-0.76825-2.03-2.9522500000000003-3.33725-5.67525-3.33725-4.0145 0-6.61325 2.86125-6.61325 7.3062499999999995 0 4.429250000000001 2.58475 7.290500000000001 6.61325 7.290500000000001 2.73875 0 4.920999999999999-1.2915 5.67525-3.33725 0.12250000000000001-0.2765 0.154-0.52325 0.154-0.784 0-0.75425-0.49175-1.2302499999999998-1.2915-1.2302499999999998-0.56875 0-0.9380000000000001 0.26075-1.2302499999999998 0.84525C53.928 84.12075 52.77475 84.85925 51.2365 84.85925zM63.063 87.33024999999999c3.5524999999999998 0 5.86075-1.722 5.86075-4.41525 0-2.0755-1.4455-3.2445000000000004-4.15275-3.8920000000000003l-1.9530000000000003-0.49175c-1.4769999999999999-0.35350000000000004-2.0614999999999997-0.84525-2.0614999999999997-1.69225 0-1.1375 0.9380000000000001-1.84625 2.39925-1.84625 1.3685 0 2.24525 0.52325 2.8000000000000003 1.645 0.33775 0.5075 0.67725 0.76825 1.30725 0.76825 0.7070000000000001 0 1.2145-0.40075 1.2145-1.15325 0-0.24674999999999997-0.061250000000000006-0.52325-0.1995-0.8312499999999999-0.61425-1.5382500000000001-2.492-2.67575-5.04525-2.67575-3.2445000000000004 0-5.47575 1.7692499999999998-5.47575 4.291 0 1.9844999999999997 1.323 3.1535 3.75375 3.7520000000000002l2.0614999999999997 0.553c1.7832499999999998 0.44625000000000004 2.3835 0.861 2.3835 1.8147499999999999 0 1.2005000000000001-1.169 1.86025-2.7072499999999997 1.86025-1.46125 0-2.4604999999999997-0.539-3.0765000000000002-1.645-0.33775-0.52325-0.7070000000000001-0.77-1.27575-0.77-0.75425 0-1.246 0.47775-1.246 1.2145 0 0.2765 0.061250000000000006 0.553 0.1995 0.8312499999999999C58.432500000000005 86.08425 60.31025 87.33024999999999 63.063 87.33024999999999zM82.0435 75.15549999999999c0.09275-0.308 0.13825-0.52325 0.13825-0.784 0-0.84525-0.63-1.41575-1.5225-1.41575-0.8312499999999999 0-1.27575 0.385-1.5382500000000001 1.323l-3.21475 9.84375h-0.12250000000000001l-3.21475-9.84375c-0.2625-0.9380000000000001-0.7070000000000001-1.323-1.5382500000000001-1.323-0.8925000000000001 0-1.5225 0.5845-1.5225 1.41575 0 0.2765 0.0455 0.47775 0.13825 0.784l3.9217500000000003 10.47375c0.4305 1.246 1.06225 1.73775 2.27675 1.73775 1.1847500000000002 0 1.86025-0.553 2.2925-1.7850000000000001L82.0435 75.15549999999999z"></path><path d="M73.5 47.25c-1.9320000000000002 0-3.5-1.5662500000000001-3.5-3.5V19.85025L97.39975 47.25H73.5z"></path></g></g></svg>